#!OML:ASF E:\I on waltz\Acrobat_Osman\acrobat\cartwheel_test 2\Patient 1\Session 1\acrobat.ASF
:FULLY-SPECIFIED
:DEGREES
186
root 5.77929 16.0615 8.09414 -536.689 8.94027 179.716
lowerback 0.375737 -0.270336 -7.48524
upperback 1.48062 -0.323314 1.44525
thorax 1.37675 -0.254743 5.7061
lowerneck -5.95789 -5.41337 -7.74139
upperneck 14.1606 -6.50635 2.79882
head 5.61046 -3.25927 1.70657
rclavicle 3.28523e-014 -1.73688e-014
rhumerus -36.0614 11.7269 -86.3959
rradius 44.7285
rwrist -10.7709
rhand -13.9494 23.5626
rfingers 7.12502
rthumb 12.1779 -6.06293
lclavicle 3.28523e-014 -1.73688e-014
lhumerus -33.3805 -16.9256 90.741
lradius 53.0275
lwrist 36.7626
lhand -14.6965 51.6313
lfingers 7.12502
lthumb 11.4574 81.2982
rfemur -25.9143 -0.468594 13.9128
rtibia 64.1857
rfoot -13.6598 1.9432
rtoes -25.6097
lfemur -5.93072 -1.34067 -26.1496
ltibia 20.6149
lfoot -193.405 193.055
ltoes -10.4564
187
root 5.81125 16.0742 8.085 -536.548 8.58081 179.91
lowerback 0.0659057 -0.344306 -7.31177
upperback 1.47831 -0.402573 1.56098
thorax 1.55996 -0.301214 5.72669
lowerneck -6.20197 -5.47408 -7.76248
upperneck 14.4984 -6.56443 2.83408
head 5.76334 -3.28215 1.70789
rclavicle 1.96742e-014 -1.75148e-014
rhumerus -35.8655 12.49 -86.8626
rradius 45.2553
rwrist -10.5331
rhand -13.6659 23.9194
rfingers 7.12502
rthumb 12.4513 -5.68973
lclavicle 1.96742e-014 -1.75148e-014
lhumerus -32.7999 -18.5077 91.8299
lradius 55.3718
lwrist 36.8238
lhand -14.7359 50.2838
lfingers 7.12502
lthumb 11.4195 79.9528
rfemur -24.4772 0.0169453 13.8176
rtibia 60.8262
rfoot -13.9948 1.69374
rtoes -25.076
lfemur -5.98875 -1.5658 -25.7672
ltibia 20.6124
lfoot -193.538 192.798
ltoes -9.78326
188
root 5.84452 16.0782 8.07319 -536.438 8.25165 180.009
lowerback -0.271628 -0.378254 -7.20887
upperback 1.47327 -0.426683 1.64711
thorax 1.74802 -0.320635 5.75667
lowerneck -6.22928 -5.56641 -7.92954
upperneck 14.703 -6.68008 2.98014
head 5.84993 -3.33408 1.76927
rclavicle -7.24477e-015 1.58655e-014
rhumerus -35.7486 13.0283 -87.1621
rradius 45.6035
rwrist -10.4658
rhand -13.5112 24.015
rfingers 7.12502
rthumb 12.6004 -5.58501
lclavicle -7.24477e-015 1.58655e-014
lhumerus -32.4159 -19.9285 92.9377
lradius 57.594
lwrist 36.7093
lhand -15.0068 49.8041
lfingers 7.12502
lthumb 11.1581 79.4874
rfemur -22.8469 0.53413 13.6492
rtibia 57.0488
rfoot -14.4073 1.17175
rtoes -25.1405
lfemur -6.04166 -1.70494 -25.5109
ltibia 20.665
lfoot -193.617 192.653
ltoes -9.95066
189
root 5.88142 16.0794 8.06196 -536.29 7.923 180.053
lowerback -0.547786 -0.386264 -7.14628
upperback 1.39167 -0.423676 1.68032
thorax 1.8177 -0.320089 5.75488
lowerneck -6.12318 -5.67697 -7.983
upperneck 14.848 -6.82532 3.01425
head 5.88912 -3.40182 1.77899
rclavicle -2.48481e-014 -3.27995e-015
rhumerus -35.7447 13.2084 -87.383
rradius 45.8839
rwrist -10.4798
rhand -13.4169 23.6201
rfingers 7.12502
rthumb 12.6913 -5.97422
lclavicle -2.48481e-014 -3.27995e-015
lhumerus -32.2832 -21.2765 94.0479
lradius 59.4754
lwrist 36.6609
lhand -14.75 52.835
lfingers 7.12502
lthumb 11.4058 82.5047
rfemur -21.1321 1.13933 13.4646
rtibia 52.9904
rfoot -14.9197 0.610486
rtoes -24.7275
lfemur -6.14364 -1.83932 -25.3009
ltibia 20.6768
lfoot -193.601 192.539
ltoes -10.3888
190
root 5.91927 16.0803 8.05225 -536.114 7.62732 180.047
lowerback -0.758638 -0.376301 -7.09214
upperback 1.30352 -0.400912 1.68176
thorax 1.84062 -0.307301 5.72534
lowerneck -6.22669 -5.79144 -7.96548
upperneck 15.1508 -6.9448 2.90568
head 6.00541 -3.46108 1.7276
rclavicle -3.27777e-014 1.91579e-014
rhumerus -35.7378 13.3134 -87.5236
rradius 45.9715
rwrist -10.6759
rhand -13.5248 23.2708
rfingers 7.12502
rthumb 12.5873 -6.33003
lclavicle -3.27777e-014 1.91579e-014
lhumerus -32.2878 -22.4268 95.0991
lradius 61.0508
lwrist 36.3664
lhand -14.1224 53.9845
lfingers 7.12502
lthumb 12.0111 83.6199
rfemur -19.3908 1.84502 13.2647
rtibia 48.7903
rfoot -15.5624 0.63332
rtoes -24.5659
lfemur -6.3012 -2.01304 -25.1384
ltibia 20.6819
lfoot -193.558 192.498
ltoes -11.2583
